<svg xmlns="http://www.w3.org/2000/svg"  style="position:absolute;width:0;height:0;overflow:hidden"><defs><symbol id="icon-person-black" viewBox="0 0 32 32"><path d="M16 16a5.333 5.333 0 1 0 0-10.666A5.333 5.333 0 1 0 16 16zm0 2.667c-3.561 0-10.667 1.787-10.667 5.333v1.333c0 .732.599 1.333 1.333 1.333h18.667c.732 0 1.333-.601 1.333-1.333V24c0-3.547-7.108-5.333-10.667-5.333z"/></symbol><symbol id="icon-email" viewBox="0 0 24 32"><path d="M20 8H4c-1.1 0-1.989.9-1.989 2L2 22c0 1.1.9 2 2 2h16c1.1 0 2-.9 2-2V10c0-1.1-.9-2-2-2zm-.4 4.251-7.069 4.419c-.151.094-.334.15-.531.15s-.38-.056-.535-.153l.004.002L4.4 12.25a.85.85 0 1 1 .902-1.437L11.999 15l6.7-4.191a.849.849 0 1 1 .903 1.437l-.004.002z"/></symbol><symbol id="icon-phone" viewBox="0 0 24 32"><path d="m19.635 18.487-2.451-.28a1.927 1.927 0 0 0-1.583.551l-1.775 1.775c-2.752-1.42-4.94-3.607-6.322-6.278l-.038-.081 1.787-1.785a1.914 1.914 0 0 0 .548-1.591l.001.009-.28-2.432a1.933 1.933 0 0 0-1.918-1.708H5.933c-1.091 0-1.997.907-1.929 1.997.511 8.24 7.101 14.821 15.332 15.333 1.091.067 1.997-.84 1.997-1.931v-1.68c0-.981-.739-1.789-1.69-1.899l-.009-.001z"/></symbol><symbol id="icon-exit-active" viewBox="0 0 32 32"><path fill="#404bbf" d="M32 16c0 8.837-7.163 16-16 16S0 24.837 0 16 7.163 0 16 0s16 7.163 16 16z" style="fill:var(--color1, #404bbf)"/><path fill="#fff" d="m21.333 11.741-1.075-1.075-4.259 4.259-4.259-4.259-1.075 1.075L14.924 16l-4.259 4.259 1.075 1.075 4.259-4.259 4.259 4.259 1.075-1.075L17.074 16l4.259-4.259z" style="fill:var(--color2, #fff)"/></symbol><symbol id="icon-exit" viewBox="0 0 32 32"><path fill="#e7e9fc" d="M32 16c0 8.837-7.163 16-16 16S0 24.837 0 16 7.163 0 16 0s16 7.163 16 16z" style="fill:var(--color3, #e7e9fc)"/><path fill="none" stroke="#000" stroke-width="1.333" d="M31.333 16c0 8.468-6.865 15.333-15.333 15.333S.667 24.468.667 16 7.532.667 16 .667 31.333 7.532 31.333 16z" style="stroke:var(--color4, #000)"/><path fill="#2e2f42" d="m21.333 11.741-1.075-1.075-4.259 4.259-4.259-4.259-1.075 1.075L14.924 16l-4.259 4.259 1.075 1.075 4.259-4.259 4.259 4.259 1.075-1.075L17.074 16l4.259-4.259z" style="fill:var(--color5, #2e2f42)"/></symbol><symbol id="icon-checkbox" viewBox="0 0 32 32"><path stroke-width="2" d="M4 1h24a3 3 0 0 1 3 3v24a3 3 0 0 1-3 3H4a3 3 0 0 1-3-3V4a3 3 0 0 1 3-3z"/></symbol><symbol id="icon-checkbox-active" viewBox="0 0 32 32"><path fill="#404bbf" d="M4 1h24a3 3 0 0 1 3 3v24a3 3 0 0 1-3 3H4a3 3 0 0 1-3-3V4a3 3 0 0 1 3-3z" style="fill:var(--color1, #404bbf)"/><path fill="none" stroke="#404bbf" stroke-width="2" d="M4 1h24a3 3 0 0 1 3 3v24a3 3 0 0 1-3 3H4a3 3 0 0 1-3-3V4a3 3 0 0 1 3-3z" style="stroke:var(--color1, #404bbf)"/><path fill="#f4f4fd" d="M22.892 8.51A1.834 1.834 0 0 1 26 9.8v.001l.001.047c0 .482-.184.922-.486 1.252l.001-.001-9.788 12.308a1.836 1.836 0 0 1-2.051.454l.012.004a1.855 1.855 0 0 1-.612-.408l-6.492-6.526a1.846 1.846 0 0 1-.448-2.06l-.005.012a1.853 1.853 0 0 1 1.715-1.156h.026-.001c.519.01.984.234 1.311.587l.001.001 5.138 5.164 8.52-10.916a.516.516 0 0 1 .05-.054h-.002z" style="fill:var(--color6, #f4f4fd)"/></symbol></defs></svg>